<svg xmlns="http://www.w3.org/2000/svg" xmlns:xlink="http://www.w3.org/1999/xlink" width="500" zoomAndPan="magnify" viewBox="0 0 375 374.999991" height="500" preserveAspectRatio="xMidYMid meet" version="1.0"><defs><g/><clipPath id="5789b6f62d"><path d="M 18.289062 324.09375 L 71.535156 324.09375 L 71.535156 358.304688 L 18.289062 358.304688 Z M 18.289062 324.09375 " clip-rule="nonzero"/></clipPath><clipPath id="a52b49c0c9"><path d="M 166.5625 324.09375 L 219.804688 324.09375 L 219.804688 358.304688 L 166.5625 358.304688 Z M 166.5625 324.09375 " clip-rule="nonzero"/></clipPath><clipPath id="dd3b65588c"><path d="M 18.289062 252.597656 L 220 252.597656 L 220 358.304688 L 18.289062 358.304688 Z M 18.289062 252.597656 " clip-rule="nonzero"/></clipPath><clipPath id="3e70a36b37"><path d="M 48.289062 252.597656 L 189.804688 252.597656 C 206.375 252.597656 219.804688 266.027344 219.804688 282.597656 L 219.804688 328.304688 C 219.804688 344.875 206.375 358.304688 189.804688 358.304688 L 48.289062 358.304688 C 31.722656 358.304688 18.289062 344.875 18.289062 328.304688 L 18.289062 282.597656 C 18.289062 266.027344 31.722656 252.597656 48.289062 252.597656 Z M 48.289062 252.597656 " clip-rule="nonzero"/></clipPath><clipPath id="d736904404"><path d="M 34.664062 287.554688 L 62.046875 287.554688 L 62.046875 330.867188 L 34.664062 330.867188 Z M 34.664062 287.554688 " clip-rule="nonzero"/></clipPath><clipPath id="5254727d84"><path d="M 35 299 L 62 299 L 62 321 L 35 321 Z M 35 299 " clip-rule="nonzero"/></clipPath><clipPath id="e727566e2b"><path d="M 34.375 302.722656 L 57.6875 297.019531 L 62.324219 315.960938 L 39.011719 321.664062 Z M 34.375 302.722656 " clip-rule="nonzero"/></clipPath><clipPath id="36c9ec3950"><path d="M 34.375 302.722656 L 57.6875 297.019531 L 62.324219 315.960938 L 39.011719 321.664062 Z M 34.375 302.722656 " clip-rule="nonzero"/></clipPath><clipPath id="fa694ff053"><path d="M 18.289062 252.597656 L 71.535156 252.597656 L 71.535156 283.285156 L 18.289062 283.285156 Z M 18.289062 252.597656 " clip-rule="nonzero"/></clipPath></defs><rect x="-37.5" width="450" fill="#ffffff" y="-37.499999" height="449.999989" fill-opacity="1"/><rect x="-37.5" width="450" fill="#f2f0e9" y="-37.499999" height="449.999989" fill-opacity="1"/><g clip-path="url(#5789b6f62d)"><path fill="#000000" d="M 18.289062 324.09375 L 71.476562 324.09375 L 71.476562 358.304688 L 18.289062 358.304688 Z M 18.289062 324.09375 " fill-opacity="1" fill-rule="nonzero"/></g><g clip-path="url(#a52b49c0c9)"><path fill="#000000" d="M 166.5625 324.09375 L 219.746094 324.09375 L 219.746094 358.304688 L 166.5625 358.304688 Z M 166.5625 324.09375 " fill-opacity="1" fill-rule="nonzero"/></g><g clip-path="url(#dd3b65588c)"><g clip-path="url(#3e70a36b37)"><path fill="#000000" d="M 18.289062 252.597656 L 219.796875 252.597656 L 219.796875 358.304688 L 18.289062 358.304688 Z M 18.289062 252.597656 " fill-opacity="1" fill-rule="nonzero"/></g></g><g clip-path="url(#d736904404)"><path fill="#f2f0e9" d="M 34.664062 287.554688 L 62.046875 287.554688 L 62.046875 330.878906 L 34.664062 330.878906 Z M 34.664062 287.554688 " fill-opacity="1" fill-rule="nonzero"/></g><g clip-path="url(#5254727d84)"><g clip-path="url(#e727566e2b)"><g clip-path="url(#36c9ec3950)"><path fill="#000000" d="M 47.894531 309.285156 L 44.898438 310.019531 C 44.136719 310.957031 43.074219 311.667969 41.808594 311.976562 C 40.664062 312.257812 39.519531 312.167969 38.488281 311.796875 L 40.507812 320.054688 C 40.621094 320.523438 41.097656 320.8125 41.570312 320.695312 L 56 317.164062 C 56.46875 317.050781 56.757812 316.574219 56.644531 316.105469 L 54.585938 307.699219 C 53.824219 308.609375 52.785156 309.296875 51.550781 309.597656 C 50.277344 309.90625 49.003906 309.769531 47.894531 309.285156 Z M 58.433594 306.539062 L 55.695312 309.167969 L 56.949219 314.292969 L 60.59375 315.355469 C 61.242188 315.546875 61.855469 314.960938 61.691406 314.300781 L 59.898438 306.96875 C 59.742188 306.304688 58.925781 306.074219 58.433594 306.539062 Z M 48.988281 299.148438 C 46.296875 299.808594 44.648438 302.519531 45.304688 305.207031 C 45.964844 307.898438 48.675781 309.542969 51.363281 308.886719 C 54.050781 308.226562 55.699219 305.515625 55.039062 302.828125 C 54.386719 300.136719 51.675781 298.492188 48.988281 299.148438 Z M 50.691406 306.113281 C 49.53125 306.398438 48.363281 305.691406 48.078125 304.53125 C 47.796875 303.371094 48.503906 302.203125 49.664062 301.917969 C 50.824219 301.632812 51.992188 302.34375 52.277344 303.503906 C 52.554688 304.664062 51.847656 305.832031 50.691406 306.113281 Z M 39.246094 301.53125 C 36.558594 302.191406 34.914062 304.902344 35.570312 307.589844 C 36.230469 310.28125 38.941406 311.925781 41.628906 311.265625 C 44.316406 310.609375 45.964844 307.898438 45.304688 305.207031 C 44.648438 302.519531 41.933594 300.875 39.246094 301.53125 Z M 40.953125 308.5 C 39.792969 308.78125 38.625 308.074219 38.339844 306.914062 C 38.0625 305.757812 38.769531 304.589844 39.925781 304.308594 C 41.082031 304.023438 42.253906 304.730469 42.539062 305.890625 C 42.820312 307.046875 42.113281 308.214844 40.953125 308.5 Z M 40.953125 308.5 " fill-opacity="1" fill-rule="nonzero"/></g></g></g><g fill="#000000" fill-opacity="1"><g transform="translate(220.601327, 335.013613)"><g><path d="M 2.734375 -52.34375 L 12.171875 -52.34375 L 25.96875 -3.078125 L 28.703125 -3.078125 L 42.5625 -52.34375 L 52.75 -52.34375 L 37.71875 0 L 16.9375 0 Z M 2.734375 -52.34375 "/></g></g></g><g fill="#000000" fill-opacity="1"><g transform="translate(276.072548, 335.013613)"><g><path d="M 22.703125 -50.46875 L 16.765625 -44.53125 L 10.765625 -50.46875 L 16.765625 -56.40625 Z M 21.71875 -6.28125 L 31.90625 -6.28125 L 31.90625 0 L 3.953125 0 L 3.953125 -6.28125 L 14.140625 -6.28125 L 14.140625 -34.46875 L 4.25 -34.46875 L 4.25 -40.75 L 15.78125 -40.75 C 17.488281 -40.75 18.90625 -40.1875 20.03125 -39.0625 C 21.15625 -37.9375 21.71875 -36.519531 21.71875 -34.8125 Z M 21.71875 -6.28125 "/></g></g></g><g fill="#000000" fill-opacity="1"><g transform="translate(310.181814, 335.013613)"><g><path d="M 52.15625 -46.046875 L 46.921875 -46.046875 L 46.921875 0 L 39.1875 0 L 39.1875 -10.828125 C 38.09375 -6.554688 36.234375 -3.488281 33.609375 -1.625 C 30.992188 0.238281 27.828125 1.171875 24.109375 1.171875 C 21.273438 1.171875 18.601562 0.628906 16.09375 -0.453125 C 13.59375 -1.546875 11.378906 -3.050781 9.453125 -4.96875 C 7.535156 -6.894531 6.039062 -9.128906 4.96875 -11.671875 C 3.90625 -14.210938 3.375 -16.941406 3.375 -19.859375 C 3.375 -22.722656 3.90625 -25.414062 4.96875 -27.9375 C 6.039062 -30.46875 7.535156 -32.691406 9.453125 -34.609375 C 11.378906 -36.535156 13.59375 -38.039062 16.09375 -39.125 C 18.601562 -40.207031 21.273438 -40.75 24.109375 -40.75 C 27.828125 -40.75 30.992188 -39.816406 33.609375 -37.953125 C 36.234375 -36.097656 38.09375 -33.035156 39.1875 -28.765625 L 39.1875 -46.40625 C 39.1875 -48.113281 39.75 -49.53125 40.875 -50.65625 C 42 -51.78125 43.414062 -52.34375 45.125 -52.34375 L 52.15625 -52.34375 Z M 39.1875 -19.859375 C 39.1875 -22.804688 38.601562 -25.375 37.4375 -27.5625 C 36.269531 -29.757812 34.609375 -31.457031 32.453125 -32.65625 C 30.296875 -33.863281 27.765625 -34.46875 24.859375 -34.46875 C 21.867188 -34.46875 19.351562 -33.851562 17.3125 -32.625 C 15.28125 -31.40625 13.738281 -29.695312 12.6875 -27.5 C 11.644531 -25.3125 11.125 -22.765625 11.125 -19.859375 C 11.125 -17.023438 11.632812 -14.488281 12.65625 -12.25 C 13.6875 -10.019531 15.21875 -8.273438 17.25 -7.015625 C 19.289062 -5.753906 21.828125 -5.125 24.859375 -5.125 C 27.734375 -5.125 30.242188 -5.765625 32.390625 -7.046875 C 34.546875 -8.328125 36.21875 -10.070312 37.40625 -12.28125 C 38.59375 -14.5 39.1875 -17.023438 39.1875 -19.859375 Z M 39.1875 -19.859375 "/></g></g></g><g fill="#f2f0e9" fill-opacity="1"><g transform="translate(24.584439, 335.013613)"><g><path d="M 3.5 0 L 21.828125 0 C 24.972656 0 27.921875 -0.257812 30.671875 -0.78125 C 33.429688 -1.3125 35.859375 -2.21875 37.953125 -3.5 C 40.054688 -4.78125 41.695312 -6.570312 42.875 -8.875 C 44.0625 -11.1875 44.65625 -14.144531 44.65625 -17.75 L 44.65625 -34.984375 C 44.65625 -38.597656 44.0625 -41.539062 42.875 -43.8125 C 41.695312 -46.082031 40.054688 -47.835938 37.953125 -49.078125 C 35.859375 -50.316406 33.429688 -51.171875 30.671875 -51.640625 C 27.921875 -52.109375 24.972656 -52.34375 21.828125 -52.34375 L 3.5 -52.34375 Z M 11.46875 -6.875 L 11.46875 -45.46875 L 21.828125 -45.46875 C 24.816406 -45.46875 27.394531 -45.222656 29.5625 -44.734375 C 31.738281 -44.253906 33.421875 -43.265625 34.609375 -41.765625 C 35.796875 -40.273438 36.390625 -38.015625 36.390625 -34.984375 L 36.390625 -17.75 C 36.390625 -14.769531 35.796875 -12.492188 34.609375 -10.921875 C 33.421875 -9.347656 31.738281 -8.28125 29.5625 -7.71875 C 27.394531 -7.15625 24.816406 -6.875 21.828125 -6.875 Z M 11.46875 -6.875 "/></g></g></g><g fill="#f2f0e9" fill-opacity="1"><g transform="translate(72.721587, 335.013613)"><g><path d="M 23.6875 1.28125 C 20.738281 1.28125 17.972656 0.71875 15.390625 -0.40625 C 12.816406 -1.53125 10.546875 -3.082031 8.578125 -5.0625 C 6.617188 -7.039062 5.085938 -9.335938 3.984375 -11.953125 C 2.878906 -14.578125 2.328125 -17.40625 2.328125 -20.4375 C 2.328125 -23.425781 2.878906 -26.21875 3.984375 -28.8125 C 5.085938 -31.414062 6.617188 -33.707031 8.578125 -35.6875 C 10.546875 -37.664062 12.816406 -39.21875 15.390625 -40.34375 C 17.972656 -41.46875 20.738281 -42.03125 23.6875 -42.03125 C 26.644531 -42.03125 29.410156 -41.46875 31.984375 -40.34375 C 34.566406 -39.21875 36.847656 -37.664062 38.828125 -35.6875 C 40.804688 -33.707031 42.347656 -31.414062 43.453125 -28.8125 C 44.566406 -26.21875 45.125 -23.425781 45.125 -20.4375 C 45.125 -17.40625 44.566406 -14.578125 43.453125 -11.953125 C 42.347656 -9.335938 40.804688 -7.039062 38.828125 -5.0625 C 36.847656 -3.082031 34.566406 -1.53125 31.984375 -0.40625 C 29.410156 0.71875 26.644531 1.28125 23.6875 1.28125 Z M 23.6875 -5.9375 C 26.71875 -5.9375 29.25 -6.578125 31.28125 -7.859375 C 33.320312 -9.140625 34.859375 -10.875 35.890625 -13.0625 C 36.921875 -15.257812 37.4375 -17.71875 37.4375 -20.4375 C 37.4375 -23.113281 36.921875 -25.535156 35.890625 -27.703125 C 34.859375 -29.878906 33.320312 -31.609375 31.28125 -32.890625 C 29.25 -34.171875 26.71875 -34.8125 23.6875 -34.8125 C 20.707031 -34.8125 18.195312 -34.171875 16.15625 -32.890625 C 14.113281 -31.609375 12.578125 -29.878906 11.546875 -27.703125 C 10.523438 -25.535156 10.015625 -23.113281 10.015625 -20.4375 C 10.015625 -17.71875 10.523438 -15.257812 11.546875 -13.0625 C 12.578125 -10.875 14.113281 -9.140625 16.15625 -7.859375 C 18.195312 -6.578125 20.707031 -5.9375 23.6875 -5.9375 Z M 23.6875 -5.9375 "/></g></g></g><g fill="#f2f0e9" fill-opacity="1"><g transform="translate(120.160253, 335.013613)"><g><path d="M 3.375 -20.4375 C 3.375 -23.3125 3.878906 -26.007812 4.890625 -28.53125 C 5.898438 -31.050781 7.316406 -33.269531 9.140625 -35.1875 C 10.960938 -37.113281 13.097656 -38.617188 15.546875 -39.703125 C 17.992188 -40.785156 20.632812 -41.328125 23.46875 -41.328125 C 27.65625 -41.328125 31.210938 -40.570312 34.140625 -39.0625 C 37.078125 -37.550781 39.328125 -35.53125 40.890625 -33 C 42.460938 -30.476562 43.3125 -27.6875 43.4375 -24.625 L 35.390625 -24.5625 C 34.890625 -28.0625 33.6875 -30.507812 31.78125 -31.90625 C 29.882812 -33.300781 27.113281 -34 23.46875 -34 C 20.90625 -34 18.707031 -33.378906 16.875 -32.140625 C 15.050781 -30.898438 13.664062 -29.257812 12.71875 -27.21875 C 11.769531 -25.175781 11.296875 -22.914062 11.296875 -20.4375 C 11.296875 -17.914062 11.769531 -15.613281 12.71875 -13.53125 C 13.664062 -11.457031 15.050781 -9.804688 16.875 -8.578125 C 18.707031 -7.359375 20.90625 -6.75 23.46875 -6.75 C 27.113281 -6.75 29.882812 -7.515625 31.78125 -9.046875 C 33.6875 -10.585938 34.890625 -12.96875 35.390625 -16.1875 L 43.4375 -16.125 C 43.3125 -13.0625 42.460938 -10.265625 40.890625 -7.734375 C 39.328125 -5.210938 37.078125 -3.195312 34.140625 -1.6875 C 31.210938 -0.175781 27.65625 0.578125 23.46875 0.578125 C 20.632812 0.578125 17.992188 0.0351562 15.546875 -1.046875 C 13.097656 -2.128906 10.960938 -3.628906 9.140625 -5.546875 C 7.316406 -7.472656 5.898438 -9.707031 4.890625 -12.25 C 3.878906 -14.789062 3.375 -17.519531 3.375 -20.4375 Z M 3.375 -20.4375 "/></g></g></g><g fill="#f2f0e9" fill-opacity="1"><g transform="translate(165.794506, 335.013613)"><g><path d="M 40.234375 -6.28125 L 45.46875 -6.28125 L 45.46875 0 L 38.421875 0 C 36.710938 0 35.296875 -0.5625 34.171875 -1.6875 C 33.046875 -2.8125 32.484375 -4.226562 32.484375 -5.9375 L 32.484375 -7.859375 C 31.710938 -5.566406 30.316406 -3.679688 28.296875 -2.203125 C 26.273438 -0.734375 23.382812 0 19.625 0 C 16.09375 0 13.125 -0.695312 10.71875 -2.09375 C 8.3125 -3.488281 6.484375 -5.457031 5.234375 -8 C 3.992188 -10.539062 3.375 -13.519531 3.375 -16.9375 L 3.375 -40.75 L 11.125 -40.75 L 11.125 -16.9375 C 11.125 -13.488281 11.789062 -10.847656 13.125 -9.015625 C 14.46875 -7.191406 16.613281 -6.28125 19.5625 -6.28125 C 22.863281 -6.28125 25.441406 -6.878906 27.296875 -8.078125 C 29.160156 -9.285156 30.488281 -10.925781 31.28125 -13 C 32.082031 -15.082031 32.484375 -17.425781 32.484375 -20.03125 L 32.484375 -40.75 L 40.234375 -40.75 Z M 40.234375 -6.28125 "/></g></g></g><g clip-path="url(#fa694ff053)"><path fill="#000000" d="M 18.289062 252.597656 L 71.515625 252.597656 L 71.515625 283.285156 L 18.289062 283.285156 Z M 18.289062 252.597656 " fill-opacity="1" fill-rule="nonzero"/></g></svg>