<svg xmlns="http://www.w3.org/2000/svg" xmlns:xlink="http://www.w3.org/1999/xlink" width="500" zoomAndPan="magnify" viewBox="0 0 375 149.999998" height="200" preserveAspectRatio="xMidYMid meet" version="1.0"><defs><g/><clipPath id="23d69f4365"><path d="M 3.65625 95.011719 L 60.804688 95.011719 L 60.804688 131.726562 L 3.65625 131.726562 Z M 3.65625 95.011719 " clip-rule="nonzero"/></clipPath><clipPath id="aceee3ae6e"><path d="M 162.796875 95.011719 L 219.941406 95.011719 L 219.941406 131.726562 L 162.796875 131.726562 Z M 162.796875 95.011719 " clip-rule="nonzero"/></clipPath><clipPath id="eda8fbff6b"><path d="M 3.65625 18.273438 L 220 18.273438 L 220 131.726562 L 3.65625 131.726562 Z M 3.65625 18.273438 " clip-rule="nonzero"/></clipPath><clipPath id="d281000b47"><path d="M 28.40625 18.273438 L 195.191406 18.273438 C 208.863281 18.273438 219.941406 29.351562 219.941406 43.023438 L 219.941406 106.976562 C 219.941406 120.648438 208.863281 131.726562 195.191406 131.726562 L 28.40625 131.726562 C 14.738281 131.726562 3.65625 120.648438 3.65625 106.976562 L 3.65625 43.023438 C 3.65625 29.351562 14.738281 18.273438 28.40625 18.273438 Z M 28.40625 18.273438 " clip-rule="nonzero"/></clipPath><clipPath id="16828d8627"><path d="M 21.230469 55.792969 L 50.625 55.792969 L 50.625 102.277344 L 21.230469 102.277344 Z M 21.230469 55.792969 " clip-rule="nonzero"/></clipPath><clipPath id="0171c33d27"><path d="M 22 68 L 51 68 L 51 92 L 22 92 Z M 22 68 " clip-rule="nonzero"/></clipPath><clipPath id="1d72bafa24"><path d="M 20.921875 72.074219 L 45.691406 66.011719 L 50.503906 85.683594 L 25.738281 91.742188 Z M 20.921875 72.074219 " clip-rule="nonzero"/></clipPath><clipPath id="849ccaac0d"><path d="M 20.921875 72.074219 L 45.691406 66.011719 L 50.503906 85.683594 L 25.738281 91.742188 Z M 20.921875 72.074219 " clip-rule="nonzero"/></clipPath><clipPath id="7928b90633"><path d="M 3.65625 18.273438 L 60.804688 18.273438 L 60.804688 51.210938 L 3.65625 51.210938 Z M 3.65625 18.273438 " clip-rule="nonzero"/></clipPath></defs><rect x="-37.5" width="450" fill="#ffffff" y="-15" height="179.999997" fill-opacity="1"/><rect x="-37.5" width="450" fill="#f2f0e9" y="-15" height="179.999997" fill-opacity="1"/><g clip-path="url(#23d69f4365)"><path fill="#000000" d="M 3.65625 95.011719 L 60.742188 95.011719 L 60.742188 131.726562 L 3.65625 131.726562 Z M 3.65625 95.011719 " fill-opacity="1" fill-rule="nonzero"/></g><g clip-path="url(#aceee3ae6e)"><path fill="#000000" d="M 162.796875 95.011719 L 219.878906 95.011719 L 219.878906 131.726562 L 162.796875 131.726562 Z M 162.796875 95.011719 " fill-opacity="1" fill-rule="nonzero"/></g><g clip-path="url(#eda8fbff6b)"><g clip-path="url(#d281000b47)"><path fill="#000000" d="M 3.65625 18.273438 L 219.933594 18.273438 L 219.933594 131.726562 L 3.65625 131.726562 Z M 3.65625 18.273438 " fill-opacity="1" fill-rule="nonzero"/></g></g><g clip-path="url(#16828d8627)"><path fill="#f2f0e9" d="M 21.230469 55.792969 L 50.625 55.792969 L 50.625 102.292969 L 21.230469 102.292969 Z M 21.230469 55.792969 " fill-opacity="1" fill-rule="nonzero"/></g><g clip-path="url(#0171c33d27)"><g clip-path="url(#1d72bafa24)"><g clip-path="url(#849ccaac0d)"><path fill="#000000" d="M 35.433594 79.117188 L 32.21875 79.902344 C 31.398438 80.914062 30.257812 81.671875 28.898438 82.003906 C 27.671875 82.304688 26.441406 82.210938 25.335938 81.8125 L 27.503906 90.671875 C 27.628906 91.175781 28.140625 91.488281 28.644531 91.363281 L 44.132812 87.574219 C 44.636719 87.449219 44.945312 86.9375 44.824219 86.433594 L 42.617188 77.414062 C 41.796875 78.390625 40.683594 79.128906 39.355469 79.453125 C 37.992188 79.78125 36.621094 79.632812 35.433594 79.117188 Z M 46.746094 76.167969 L 43.804688 78.988281 L 45.152344 84.488281 L 49.0625 85.632812 C 49.761719 85.835938 50.417969 85.210938 50.242188 84.5 L 48.316406 76.628906 C 48.148438 75.917969 47.273438 75.667969 46.746094 76.167969 Z M 36.605469 68.234375 C 33.71875 68.941406 31.949219 71.855469 32.652344 74.742188 C 33.359375 77.625 36.269531 79.394531 39.15625 78.6875 C 42.042969 77.980469 43.808594 75.070312 43.101562 72.183594 C 42.402344 69.296875 39.492188 67.53125 36.605469 68.234375 Z M 38.433594 75.714844 C 37.191406 76.019531 35.9375 75.257812 35.632812 74.011719 C 35.328125 72.765625 36.085938 71.511719 37.332031 71.207031 C 38.578125 70.902344 39.832031 71.664062 40.136719 72.910156 C 40.433594 74.15625 39.675781 75.410156 38.433594 75.714844 Z M 26.152344 70.792969 C 23.265625 71.5 21.5 74.410156 22.207031 77.296875 C 22.910156 80.183594 25.824219 81.949219 28.707031 81.242188 C 31.59375 80.539062 33.359375 77.625 32.652344 74.742188 C 31.949219 71.855469 29.035156 70.089844 26.152344 70.792969 Z M 27.980469 78.269531 C 26.734375 78.574219 25.480469 77.816406 25.175781 76.570312 C 24.878906 75.328125 25.640625 74.074219 26.878906 73.773438 C 28.121094 73.46875 29.378906 74.226562 29.683594 75.472656 C 29.988281 76.714844 29.226562 77.964844 27.980469 78.269531 Z M 27.980469 78.269531 " fill-opacity="1" fill-rule="nonzero"/></g></g></g><g fill="#000000" fill-opacity="1"><g transform="translate(220.796416, 106.72947)"><g><path d="M 2.9375 -56.171875 L 13.0625 -56.171875 L 27.875 -3.3125 L 30.8125 -3.3125 L 45.671875 -56.171875 L 56.609375 -56.171875 L 40.484375 0 L 18.1875 0 Z M 2.9375 -56.171875 "/></g></g></g><g fill="#000000" fill-opacity="1"><g transform="translate(280.333213, 106.72947)"><g><path d="M 24.375 -54.171875 L 18 -47.796875 L 11.5625 -54.171875 L 18 -60.546875 Z M 23.3125 -6.75 L 34.234375 -6.75 L 34.234375 0 L 4.25 0 L 4.25 -6.75 L 15.1875 -6.75 L 15.1875 -36.984375 L 4.5625 -36.984375 L 4.5625 -43.734375 L 16.9375 -43.734375 C 18.769531 -43.734375 20.289062 -43.128906 21.5 -41.921875 C 22.707031 -40.710938 23.3125 -39.191406 23.3125 -37.359375 Z M 23.3125 -6.75 "/></g></g></g><g fill="#000000" fill-opacity="1"><g transform="translate(316.942403, 106.72947)"><g><path d="M 55.984375 -49.421875 L 50.359375 -49.421875 L 50.359375 0 L 42.046875 0 L 42.046875 -11.625 C 40.878906 -7.039062 38.890625 -3.75 36.078125 -1.75 C 33.265625 0.25 29.863281 1.25 25.875 1.25 C 22.832031 1.25 19.96875 0.664062 17.28125 -0.5 C 14.59375 -1.664062 12.21875 -3.28125 10.15625 -5.34375 C 8.09375 -7.40625 6.488281 -9.800781 5.34375 -12.53125 C 4.195312 -15.257812 3.625 -18.1875 3.625 -21.3125 C 3.625 -24.394531 4.195312 -27.285156 5.34375 -29.984375 C 6.488281 -32.691406 8.09375 -35.078125 10.15625 -37.140625 C 12.21875 -39.203125 14.59375 -40.816406 17.28125 -41.984375 C 19.96875 -43.148438 22.832031 -43.734375 25.875 -43.734375 C 29.863281 -43.734375 33.265625 -42.734375 36.078125 -40.734375 C 38.890625 -38.734375 40.878906 -35.445312 42.046875 -30.875 L 42.046875 -49.796875 C 42.046875 -51.628906 42.648438 -53.148438 43.859375 -54.359375 C 45.066406 -55.566406 46.585938 -56.171875 48.421875 -56.171875 L 55.984375 -56.171875 Z M 42.046875 -21.3125 C 42.046875 -24.476562 41.421875 -27.234375 40.171875 -29.578125 C 38.921875 -31.929688 37.140625 -33.753906 34.828125 -35.046875 C 32.515625 -36.335938 29.800781 -36.984375 26.6875 -36.984375 C 23.476562 -36.984375 20.78125 -36.328125 18.59375 -35.015625 C 16.40625 -33.703125 14.75 -31.867188 13.625 -29.515625 C 12.5 -27.171875 11.9375 -24.4375 11.9375 -21.3125 C 11.9375 -18.269531 12.488281 -15.550781 13.59375 -13.15625 C 14.695312 -10.757812 16.34375 -8.882812 18.53125 -7.53125 C 20.71875 -6.175781 23.4375 -5.5 26.6875 -5.5 C 29.757812 -5.5 32.453125 -6.1875 34.765625 -7.5625 C 37.078125 -8.9375 38.867188 -10.8125 40.140625 -13.1875 C 41.410156 -15.5625 42.046875 -18.269531 42.046875 -21.3125 Z M 42.046875 -21.3125 "/></g></g></g><g fill="#f2f0e9" fill-opacity="1"><g transform="translate(10.413119, 106.72947)"><g><path d="M 3.75 0 L 23.4375 0 C 26.8125 0 29.972656 -0.28125 32.921875 -0.84375 C 35.878906 -1.40625 38.484375 -2.375 40.734375 -3.75 C 42.984375 -5.125 44.742188 -7.050781 46.015625 -9.53125 C 47.285156 -12.007812 47.921875 -15.1875 47.921875 -19.0625 L 47.921875 -37.546875 C 47.921875 -41.421875 47.285156 -44.578125 46.015625 -47.015625 C 44.742188 -49.453125 42.984375 -51.335938 40.734375 -52.671875 C 38.484375 -54.003906 35.878906 -54.921875 32.921875 -55.421875 C 29.972656 -55.921875 26.8125 -56.171875 23.4375 -56.171875 L 3.75 -56.171875 Z M 12.3125 -7.375 L 12.3125 -48.796875 L 23.4375 -48.796875 C 26.644531 -48.796875 29.410156 -48.535156 31.734375 -48.015625 C 34.066406 -47.492188 35.867188 -46.429688 37.140625 -44.828125 C 38.410156 -43.222656 39.046875 -40.796875 39.046875 -37.546875 L 39.046875 -19.0625 C 39.046875 -15.851562 38.410156 -13.40625 37.140625 -11.71875 C 35.867188 -10.03125 34.066406 -8.882812 31.734375 -8.28125 C 29.410156 -7.675781 26.644531 -7.375 23.4375 -7.375 Z M 12.3125 -7.375 "/></g></g></g><g fill="#f2f0e9" fill-opacity="1"><g transform="translate(62.078317, 106.72947)"><g><path d="M 25.4375 1.375 C 22.269531 1.375 19.300781 0.769531 16.53125 -0.4375 C 13.757812 -1.644531 11.320312 -3.3125 9.21875 -5.4375 C 7.113281 -7.5625 5.46875 -10.03125 4.28125 -12.84375 C 3.09375 -15.65625 2.5 -18.6875 2.5 -21.9375 C 2.5 -25.144531 3.09375 -28.140625 4.28125 -30.921875 C 5.46875 -33.710938 7.113281 -36.171875 9.21875 -38.296875 C 11.320312 -40.421875 13.757812 -42.085938 16.53125 -43.296875 C 19.300781 -44.503906 22.269531 -45.109375 25.4375 -45.109375 C 28.601562 -45.109375 31.566406 -44.503906 34.328125 -43.296875 C 37.097656 -42.085938 39.546875 -40.421875 41.671875 -38.296875 C 43.796875 -36.171875 45.453125 -33.710938 46.640625 -30.921875 C 47.828125 -28.140625 48.421875 -25.144531 48.421875 -21.9375 C 48.421875 -18.6875 47.828125 -15.65625 46.640625 -12.84375 C 45.453125 -10.03125 43.796875 -7.5625 41.671875 -5.4375 C 39.546875 -3.3125 37.097656 -1.644531 34.328125 -0.4375 C 31.566406 0.769531 28.601562 1.375 25.4375 1.375 Z M 25.4375 -6.375 C 28.6875 -6.375 31.398438 -7.0625 33.578125 -8.4375 C 35.765625 -9.8125 37.410156 -11.675781 38.515625 -14.03125 C 39.617188 -16.382812 40.171875 -19.019531 40.171875 -21.9375 C 40.171875 -24.8125 39.617188 -27.410156 38.515625 -29.734375 C 37.410156 -32.066406 35.765625 -33.921875 33.578125 -35.296875 C 31.398438 -36.671875 28.6875 -37.359375 25.4375 -37.359375 C 22.226562 -37.359375 19.53125 -36.671875 17.34375 -35.296875 C 15.15625 -33.921875 13.507812 -32.066406 12.40625 -29.734375 C 11.300781 -27.410156 10.75 -24.8125 10.75 -21.9375 C 10.75 -19.019531 11.300781 -16.382812 12.40625 -14.03125 C 13.507812 -11.675781 15.15625 -9.8125 17.34375 -8.4375 C 19.53125 -7.0625 22.226562 -6.375 25.4375 -6.375 Z M 25.4375 -6.375 "/></g></g></g><g fill="#f2f0e9" fill-opacity="1"><g transform="translate(112.99384, 106.72947)"><g><path d="M 3.625 -21.9375 C 3.625 -25.019531 4.164062 -27.910156 5.25 -30.609375 C 6.332031 -33.316406 7.851562 -35.703125 9.8125 -37.765625 C 11.769531 -39.828125 14.0625 -41.441406 16.6875 -42.609375 C 19.3125 -43.773438 22.144531 -44.359375 25.1875 -44.359375 C 29.675781 -44.359375 33.492188 -43.546875 36.640625 -41.921875 C 39.785156 -40.296875 42.203125 -38.128906 43.890625 -35.421875 C 45.578125 -32.710938 46.484375 -29.71875 46.609375 -26.4375 L 37.984375 -26.375 C 37.441406 -30.113281 36.148438 -32.734375 34.109375 -34.234375 C 32.066406 -35.734375 29.09375 -36.484375 25.1875 -36.484375 C 22.4375 -36.484375 20.082031 -35.816406 18.125 -34.484375 C 16.164062 -33.148438 14.675781 -31.390625 13.65625 -29.203125 C 12.632812 -27.023438 12.125 -24.601562 12.125 -21.9375 C 12.125 -19.226562 12.632812 -16.757812 13.65625 -14.53125 C 14.675781 -12.300781 16.164062 -10.53125 18.125 -9.21875 C 20.082031 -7.90625 22.4375 -7.25 25.1875 -7.25 C 29.09375 -7.25 32.066406 -8.070312 34.109375 -9.71875 C 36.148438 -11.363281 37.441406 -13.914062 37.984375 -17.375 L 46.609375 -17.3125 C 46.484375 -14.019531 45.578125 -11.019531 43.890625 -8.3125 C 42.203125 -5.601562 39.785156 -3.4375 36.640625 -1.8125 C 33.492188 -0.1875 29.675781 0.625 25.1875 0.625 C 22.144531 0.625 19.3125 0.0390625 16.6875 -1.125 C 14.0625 -2.289062 11.769531 -3.90625 9.8125 -5.96875 C 7.851562 -8.03125 6.332031 -10.425781 5.25 -13.15625 C 4.164062 -15.882812 3.625 -18.8125 3.625 -21.9375 Z M 3.625 -21.9375 "/></g></g></g><g fill="#f2f0e9" fill-opacity="1"><g transform="translate(161.972702, 106.72947)"><g><path d="M 43.171875 -6.75 L 48.796875 -6.75 L 48.796875 0 L 41.234375 0 C 39.398438 0 37.878906 -0.601562 36.671875 -1.8125 C 35.460938 -3.019531 34.859375 -4.539062 34.859375 -6.375 L 34.859375 -8.4375 C 34.023438 -5.976562 32.523438 -3.957031 30.359375 -2.375 C 28.203125 -0.789062 25.101562 0 21.0625 0 C 17.269531 0 14.082031 -0.75 11.5 -2.25 C 8.914062 -3.75 6.957031 -5.863281 5.625 -8.59375 C 4.289062 -11.320312 3.625 -14.519531 3.625 -18.1875 L 3.625 -43.734375 L 11.9375 -43.734375 L 11.9375 -18.1875 C 11.9375 -14.476562 12.65625 -11.644531 14.09375 -9.6875 C 15.53125 -7.726562 17.832031 -6.75 21 -6.75 C 24.539062 -6.75 27.304688 -7.394531 29.296875 -8.6875 C 31.296875 -9.976562 32.722656 -11.738281 33.578125 -13.96875 C 34.429688 -16.195312 34.859375 -18.707031 34.859375 -21.5 L 34.859375 -43.734375 L 43.171875 -43.734375 Z M 43.171875 -6.75 "/></g></g></g><g clip-path="url(#7928b90633)"><path fill="#000000" d="M 3.65625 18.273438 L 60.78125 18.273438 L 60.78125 51.210938 L 3.65625 51.210938 Z M 3.65625 18.273438 " fill-opacity="1" fill-rule="nonzero"/></g></svg>